<svg width="13" height="12" viewBox="0 0 13 12" fill="none" xmlns="http://www.w3.org/2000/svg">
<path d="M0 0V0.747455C0.00119876 0.835471 0.0356033 0.919427 0.0957205 0.981036L4.74137 5.89289C4.80148 5.95449 4.83589 6.03845 4.83709 6.12647V10.7247C4.83697 10.7872 4.85366 10.8485 4.88525 10.9016C4.91684 10.9547 4.96207 10.9975 5.01577 11.025L7.53641 11.966C7.5851 11.9909 7.63907 12.0025 7.69323 11.9996C7.74738 11.9966 7.79993 11.9793 7.84591 11.9493C7.89189 11.9192 7.92979 11.8774 7.95603 11.8278C7.98227 11.7782 7.99598 11.7224 7.99587 11.6656V6.0664C8.0047 5.9762 8.04571 5.8928 8.11074 5.83282L12.6543 0.994383C12.7144 0.932774 12.7488 0.848819 12.75 0.760803V0H0Z" fill="#1E73BE"/>
</svg>
