<svg width="14" height="13" viewBox="0 0 14 13" fill="none" xmlns="http://www.w3.org/2000/svg">
<path d="M13.1891 4.45007L9.22187 3.8735L7.44844 0.278192C7.4 0.179754 7.32031 0.100067 7.22187 0.0516293C6.975 -0.0702457 6.675 0.0313168 6.55156 0.278192L4.77812 3.8735L0.810936 4.45007C0.701561 4.46569 0.601561 4.51725 0.524999 4.59538C0.432439 4.69051 0.381434 4.8185 0.383192 4.95123C0.38495 5.08395 0.439327 5.21054 0.534374 5.30319L3.40469 8.10163L2.72656 12.0532C2.71066 12.1451 2.72083 12.2397 2.75592 12.3261C2.79102 12.4125 2.84963 12.4874 2.92511 12.5422C3.00059 12.597 3.08992 12.6296 3.18297 12.6362C3.27602 12.6429 3.36907 12.6233 3.45156 12.5798L7 10.7141L10.5484 12.5798C10.6453 12.6313 10.7578 12.6485 10.8656 12.6298C11.1375 12.5829 11.3203 12.3251 11.2734 12.0532L10.5953 8.10163L13.4656 5.30319C13.5437 5.22663 13.5953 5.12663 13.6109 5.01725C13.6531 4.74382 13.4625 4.49069 13.1891 4.45007Z" fill="#FFCE31"/>
</svg>
