<svg width="14" height="13" viewBox="0 0 14 13" fill="none" xmlns="http://www.w3.org/2000/svg">
<path d="M11.7667 3.33335C11.6503 3.13184 11.4833 2.96427 11.2821 2.84732C11.0809 2.73037 10.8527 2.66809 10.62 2.66669H9V1.33335C9 1.15654 8.92976 0.986974 8.80473 0.861949C8.67971 0.736925 8.51014 0.666687 8.33333 0.666687H1.66666C1.31304 0.666687 0.973901 0.807163 0.723852 1.05721C0.473804 1.30726 0.333328 1.6464 0.333328 2.00002V8.66669C0.333568 8.9005 0.39529 9.13015 0.512303 9.33258C0.629315 9.53501 0.797503 9.70311 0.999995 9.82002C0.976125 10.4389 1.19907 11.0418 1.61977 11.4963C2.04048 11.9508 2.62449 12.2195 3.24333 12.2434C3.86217 12.2672 4.46514 12.0443 4.9196 11.6236C5.37407 11.2029 5.64279 10.6189 5.66666 10H7.73333C7.80705 10.5578 8.08097 11.0698 8.50408 11.4407C8.9272 11.8116 9.47068 12.016 10.0333 12.016C10.596 12.016 11.1395 11.8116 11.5626 11.4407C11.9857 11.0698 12.2596 10.5578 12.3333 10C12.687 10 13.0261 9.85954 13.2761 9.6095C13.5262 9.35945 13.6667 9.02031 13.6667 8.66669V6.66669C13.6656 6.54506 13.6335 6.42573 13.5733 6.32002L11.7667 3.33335ZM9 4.00002H10.62L11.82 6.00002H9V4.00002ZM3.33333 10.6667C3.13555 10.6667 2.94221 10.608 2.77776 10.4982C2.61331 10.3883 2.48514 10.2321 2.40945 10.0494C2.33376 9.86664 2.31396 9.66558 2.35254 9.4716C2.39113 9.27762 2.48637 9.09943 2.62622 8.95958C2.76607 8.81973 2.94426 8.72449 3.13824 8.6859C3.33222 8.64732 3.53329 8.66712 3.71601 8.74281C3.89874 8.8185 4.05492 8.94667 4.1648 9.11112C4.27468 9.27557 4.33333 9.46891 4.33333 9.66669C4.33333 9.9319 4.22797 10.1863 4.04044 10.3738C3.8529 10.5613 3.59854 10.6667 3.33333 10.6667ZM10 10.6667C9.80221 10.6667 9.60887 10.608 9.44443 10.4982C9.27998 10.3883 9.1518 10.2321 9.07612 10.0494C9.00043 9.86664 8.98062 9.66558 9.01921 9.4716C9.05779 9.27762 9.15304 9.09943 9.29289 8.95958C9.43274 8.81973 9.61092 8.72449 9.8049 8.6859C9.99889 8.64732 10.2 8.66712 10.3827 8.74281C10.5654 8.8185 10.7216 8.94667 10.8315 9.11112C10.9413 9.27557 11 9.46891 11 9.66669C11 9.9319 10.8946 10.1863 10.7071 10.3738C10.5196 10.5613 10.2652 10.6667 10 10.6667Z" fill="#1E73BE"/>
</svg>
